# File created by Blade
# Date/Time:  Wed Jan 21 17:34:04 2015
# Frame Rate: 120.000 fps
#------------------------------------------------------
:FULLY-SPECIFIED
:DEGREES
966
root 19.712211 5.480840 -20.243761 -172.203573 -31.029300 -142.456394
Spine -20.133079 -6.821601 41.978696
Head -14.908514 -15.101336 2.989124
LeftShoulder -10.101483 -15.187365 7.872722
LeftArm -23.150764 0.826924 -83.462058
LeftForeArm 11.310005 -0.000000 -2.799064
LeftHand 8.767807 -0.000000 -4.014831
LeftHandThumb1 -26.253704 0.000000 33.147579
RightShoulder -29.610611 -14.367235 10.384987
RightArm -41.040359 73.706466 25.205672
RightForeArm 6.477232 -0.000000 120.070825
RightHand -3.450903 0.000000 -8.966250
RightHandThumb1 -24.326973 -0.000000 -32.862282
LeftUpLeg -99.405231 -23.393720 -52.684576
LeftLeg 136.755967 -0.000000 -0.000000
LeftFoot 29.665576 20.227070 5.212634
LeftToeBase 24.644415 -0.000000 -0.000000
RightUpLeg 15.832683 41.937809 -14.376190
RightLeg 132.616227 -0.000000 -0.000000
RightFoot 45.403909 -19.463635 -17.186008
RightToeBase 20.226716 -0.000000 -0.000000
967
root 19.712341 5.479762 -20.243506 -172.201412 -31.037820 -142.453648
Spine -20.115661 -6.800327 41.981527
Head -14.963400 -15.072490 2.972029
LeftShoulder -10.121346 -15.213844 7.883902
LeftArm -23.148427 0.817589 -83.458033
LeftForeArm 11.348039 -0.000000 -2.796403
LeftHand 8.771447 0.000000 -4.029247
LeftHandThumb1 -26.253704 0.000000 33.147579
RightShoulder -29.636031 -14.335454 10.392402
RightArm -41.085236 73.699251 25.127632
RightForeArm 6.522730 -0.000000 120.070638
RightHand -3.451212 -0.000000 -8.963007
RightHandThumb1 -24.326973 -0.000000 -32.862282
LeftUpLeg -99.399852 -23.404979 -52.685108
LeftLeg 136.755064 -0.000000 -0.000000
LeftFoot 29.672535 20.198432 5.258938
LeftToeBase 24.581271 -0.000000 -0.000000
RightUpLeg 15.837970 41.940317 -14.369913
RightLeg 132.615940 -0.000000 -0.000000
RightFoot 45.399763 -19.488916 -17.175808
RightToeBase 20.163215 -0.000000 -0.000000
968
root 19.710596 5.478685 -20.242941 -172.200786 -31.039143 -142.452516
Spine -20.107628 -6.788059 41.989356
Head -14.977888 -15.083095 2.990692
LeftShoulder -10.131439 -15.222507 7.888305
LeftArm -23.147203 0.810308 -83.461613
LeftForeArm 11.369743 0.000000 -2.792066
LeftHand 8.765364 -0.000000 -4.027215
LeftHandThumb1 -26.253704 0.000000 33.147579
RightShoulder -29.634934 -14.345757 10.399332
RightArm -41.088659 73.728475 25.105981
RightForeArm 6.541872 -0.000000 120.077636
RightHand -3.442113 -0.000000 -8.951682
RightHandThumb1 -24.326973 -0.000000 -32.862282
LeftUpLeg -99.390905 -23.411537 -52.699595
LeftLeg 136.745577 -0.000000 -0.000000
LeftFoot 29.665206 20.259098 5.206368
LeftToeBase 24.604755 -0.000000 -0.000000
RightUpLeg 15.835547 41.952109 -14.373463
RightLeg 132.610605 -0.000000 -0.000000
RightFoot 45.405083 -19.482683 -17.197627
RightToeBase 20.184885 -0.000000 -0.000000
969
root 19.710408 5.477329 -20.242696 -172.201385 -31.046158 -142.451089
Spine -20.116659 -6.790167 41.990906
Head -14.938163 -15.063878 3.006907
LeftShoulder -10.124527 -15.200360 7.894897
LeftArm -23.126851 0.797359 -83.471785
LeftForeArm 11.383270 -0.000000 -2.794690
LeftHand 8.757153 -0.000000 -4.010077
LeftHandThumb1 -26.253704 0.000000 33.147579
RightShoulder -29.625332 -14.339918 10.378529
RightArm -41.093514 73.739667 25.107714
RightForeArm 6.523139 -0.000000 120.091660
RightHand -3.494244 -0.000000 -8.959194
RightHandThumb1 -24.326973 -0.000000 -32.862282
LeftUpLeg -99.381670 -23.418591 -52.697979
LeftLeg 136.744268 -0.000000 -0.000000
LeftFoot 29.667494 20.199469 5.309188
LeftToeBase 24.747115 -0.000000 -0.000000
RightUpLeg 15.842426 41.958363 -14.368043
RightLeg 132.608715 -0.000000 -0.000000
RightFoot 45.412114 -19.508728 -17.168937
RightToeBase 20.173006 -0.000000 -0.000000
970
root 19.710064 5.475038 -20.243153 -172.199547 -31.060194 -142.449625
Spine -20.118693 -6.789846 41.991003
Head -14.962631 -15.121844 3.049546
LeftShoulder -10.132686 -15.207570 7.916449
LeftArm -23.133099 0.809002 -83.492858
LeftForeArm 11.376698 0.000000 -2.783075
LeftHand 8.747994 -0.000000 -4.024633
LeftHandThumb1 -26.253704 0.000000 33.147579
RightShoulder -29.630416 -14.310547 10.369969
RightArm -41.105522 73.721463 25.072876
RightForeArm 6.474012 -0.000000 120.093296
RightHand -3.559626 0.000000 -8.986801
RightHandThumb1 -24.326973 -0.000000 -32.862282
LeftUpLeg -99.375271 -23.435308 -52.690478
LeftLeg 136.747274 -0.000000 -0.000000
LeftFoot 29.649999 20.188558 5.265582
LeftToeBase 24.739673 -0.000000 -0.000000
RightUpLeg 15.859627 41.956963 -14.355225
RightLeg 132.606950 -0.000000 -0.000000
RightFoot 45.396353 -19.467108 -17.170686
RightToeBase 20.188412 -0.000000 -0.000000
971
root 19.710168 5.474691 -20.242989 -172.197037 -31.066605 -142.452292
Spine -20.117835 -6.787768 41.982931
Head -14.948504 -15.063684 3.071789
LeftShoulder -10.136246 -15.199657 7.924556
LeftArm -23.122157 0.801054 -83.497129
LeftForeArm 11.385617 -0.000000 -2.778291
LeftHand 8.756501 -0.000000 -3.997529
LeftHandThumb1 -26.253704 0.000000 33.147579
RightShoulder -29.624641 -14.305676 10.379620
RightArm -41.111070 73.729111 25.062179
RightForeArm 6.457056 -0.000000 120.092323
RightHand -3.573071 -0.000000 -9.091294
RightHandThumb1 -24.326973 -0.000000 -32.862282
LeftUpLeg -99.366854 -23.441724 -52.702088
LeftLeg 136.740665 -0.000000 -0.000000
LeftFoot 29.665481 20.211581 5.276072
LeftToeBase 24.782351 -0.000000 -0.000000
RightUpLeg 15.862866 41.964322 -14.351408
RightLeg 132.612784 -0.000000 -0.000000
RightFoot 45.393759 -19.439881 -17.154921
RightToeBase 20.156811 -0.000000 -0.000000
972
root 19.710143 5.473622 -20.242852 -172.197044 -31.075152 -142.452888
Spine -20.114322 -6.787663 41.985687
Head -14.946690 -15.086968 3.085339
LeftShoulder -10.129421 -15.201036 7.921450
LeftArm -23.122573 0.807615 -83.500403
LeftForeArm 11.367263 -0.000000 -2.773823
LeftHand 8.769667 -0.000000 -4.034973
LeftHandThumb1 -26.253704 0.000000 33.147579
RightShoulder -29.626634 -14.274013 10.363143
RightArm -41.121672 73.719800 25.056729
RightForeArm 6.438446 0.000000 120.108754
RightHand -3.587726 -0.000000 -9.084963
RightHandThumb1 -24.326973 -0.000000 -32.862282
LeftUpLeg -99.356974 -23.449548 -52.704090
LeftLeg 136.743362 -0.000000 -0.000000
LeftFoot 29.637790 20.218109 5.285107
LeftToeBase 24.782782 -0.000000 -0.000000
RightUpLeg 15.863207 41.967086 -14.357576
RightLeg 132.607423 -0.000000 -0.000000
RightFoot 45.428980 -19.423104 -17.156041
RightToeBase 20.119130 -0.000000 -0.000000
